# xmcd
#
# Track frame offsets:
#  150
#  25035
#  47486
#  72386
#  92609
#  115124
#  130494
#  151688
#  171470
#  192717
#  201899
#  217222
#  242088
#  262253
#  280528
#  303251
#  323838
#  341388
#
# Disc length: 4771 seconds
#
# Revision: 0
# Processed by: cddbd v1.5PL3 Copyright (c) Steve Scherf et al.
# Submitted via: AltoMP3_Maker 3.0
#
DISCID=0b12a112
DTITLE=Mark Knopfler - Philadelphia Gold-Best 2001
DYEAR=1900
DGENRE=
TTITLE0=Sailing To Philadelphia
TTITLE1=What It Is
TTITLE2=El Macho
TTITLE3=Darling Pretty
TTITLE4=Golden Heart
TTITLE5=Sweet Dreams
TTITLE6=Irish Boy
TTITLE7=Storybook Love
TTITLE8=Wag The Dog
TTITLE9=An American Hero
TTITLE10=The Last Laugh
TTITLE11=Silvertown Blues
TTITLE12=Prairie Wedding
TTITLE13=The Way It Always Starts
TTITLE14=Going Home
TTITLE15=Your Own Sweet Way
TTITLE16=Will You Miss Me
TTITLE17=Broken Wing
EXTD=
EXTT0=
EXTT1=
EXTT2=
EXTT3=
EXTT4=
EXTT5=
EXTT6=
EXTT7=
EXTT8=
EXTT9=
EXTT10=
EXTT11=
EXTT12=
EXTT13=
EXTT14=
EXTT15=
EXTT16=
EXTT17=
PLAYORDER=
